<?xml version="1.0" encoding="UTF-8"?>
<svg width="200px" height="200px" viewBox="0 0 200 200" version="1.1" xmlns="http://www.w3.org/2000/svg">
    <title>Admin Profile</title>
    <defs>
        <linearGradient x1="0%" y1="0%" x2="100%" y2="100%" id="adminGradient">
            <stop stop-color="#3498db" offset="0%"></stop>
            <stop stop-color="#2c3e50" offset="100%"></stop>
        </linearGradient>
    </defs>
    <g stroke="none" stroke-width="1" fill="none" fill-rule="evenodd">
        <circle fill="url(#adminGradient)" cx="100" cy="100" r="100"></circle>
        <path d="M100,50 C116.569,50 130,63.4315 130,80 C130,96.5685 116.569,110 100,110 C83.4315,110 70,96.5685 70,80 C70,63.4315 83.4315,50 100,50 Z" fill="#FFFFFF"></path>
        <path d="M155,155 C155,129.624 131.421,108 100,108 C68.5786,108 45,129.624 45,155 L155,155 Z" fill="#FFFFFF"></path>
        <path d="M85,75 C85,70.5817 88.5817,67 93,67 C97.4183,67 101,70.5817 101,75 C101,79.4183 97.4183,83 93,83 C88.5817,83 85,79.4183 85,75 Z M101,75 C101,70.5817 104.582,67 109,67 C113.418,67 117,70.5817 117,75 C117,79.4183 113.418,83 109,83 C104.582,83 101,79.4183 101,75 Z" fill="#2c3e50"></path>
        <path d="M100,140 L114,129 L100,118 L86,129 L100,140 Z" fill="#3498db"></path>
    </g>
</svg>